<svg xmlns="http://www.w3.org/2000/svg" width="580" height="230" viewBox="0 0 580 230" xmlns:c2pa="http://c2pa.org/manifest"><metadata><c2pa:manifest>AAAWgmp1bWIAAAAeanVtZGMycGEAEQAQgAAAqgA4m3EDYzJwYQAAABZcanVtYgAAAEdqdW1kYzJtYQARABCAAACqADibcQN1cm46YzJwYTpmNWY2MzcxMy0xMDM0LTQzZjQtYjYyYS00YmU4MDI2MjczNmQAAAADl2p1bWIAAAApanVtZGMyYXMAEQAQgAAAqgA4m3EDYzJwYS5hc3NlcnRpb25zAAAAALxqdW1iAAAARGp1bWRjYm9yABEAEIAAAKoAOJtxE2MycGEuaW5ncmVkaWVudC52MwAAAAAYYzJzaLZ6DIL2SHMATiO8q/diCkMAAABwY2JvcqNpZGM6Zm9ybWF0bWltYWdlL3N2Zyt4bWxqaW5zdGFuY2VJRHgseG1wOmlpZDplYWI0ZDBhYy1iZDA5LTQ3YjctYTdjNC1lOTQ0ODc1MzZhNmZscmVsYXRpb25zaGlwaHBhcmVudE9mAAAB4mp1bWIAAABBanVtZGNib3IAEQAQgAAAqgA4m3ETYzJwYS5hY3Rpb25zLnYyAAAAABhjMnNo0yVXtBtElwmy8vZKEJ8S8wAAAZljYm9yomdhY3Rpb25zgqJmYWN0aW9ua2MycGEub3BlbmVkanBhcmFtZXRlcnOha2luZ3JlZGllbnRzgaJjdXJseC1zZWxmI2p1bWJmPWMycGEuYXNzZXJ0aW9ucy9jMnBhLmluZ3JlZGllbnQudjNkaGFzaFggLgoxigf9AYFkNXgOTMSde3w8y0A32B7lzOIEsM+zuIqkZmFjdGlvbngdY29tLmFudGhyb3BpYy5jbGF1ZGUucHJvdmlkZWRqcGFyYW1ldGVyc6F4H2NvbS5hbnRocm9waWMub3JpZ2luLWNvbmZpZGVuY2VndW5rbm93bmtkZXNjcmlwdGlvbnhmQ2xhdWRlIHByb3ZpZGVkIHRoaXMgZmlsZSBhdCB0aGUgcmVxdWVzdCBvZiBhIHVzZXIgYW5kIG1heSBoYXZlIGNyZWF0ZWQgb3IgbW9kaWZpZWQgdGhlIGZpbGUgY29udGVudHMubXNvZnR3YXJlQWdlbnShZG5hbWVmQ2xhdWRlcmFsbEFjdGlvbnNJbmNsdWRlZPUAAADIanVtYgAAAEBqdW1kY2JvcgARABCAAACqADibcRNjMnBhLmhhc2guZGF0YQAAAAAYYzJzaEdq8CKnR8VJ3GyHA3V98KEAAACAY2JvcqVjYWxnZnNoYTI1NmNwYWRNAAAAAAAAAAAAAAAAAGRoYXNoWCCJ4bASeHud+Wm0WvdOxQPTv2jBPLoV1YsZK8nKcAJKy2RuYW1lbmp1bWJmIG1hbmlmZXN0amV4Y2x1c2lvbnOBomVzdGFydBiWZmxlbmd0aBkeBAAAAj5qdW1iAAAAJ2p1bWRjMmNsABEAEIAAAKoAOJtxA2MycGEuY2xhaW0udjIAAAACD2Nib3KlY2FsZ2ZzaGEyNTZpc2lnbmF0dXJleE1zZWxmI2p1bWJmPS9jMnBhL3VybjpjMnBhOmY1ZjYzNzEzLTEwMzQtNDNmNC1iNjJhLTRiZTgwMjYyNzM2ZC9jMnBhLnNpZ25hdHVyZWppbnN0YW5jZUlEeCx4bXA6aWlkOmEyNmQ5Yjc1LTFhZjktNDFkYS1iN2FiLWI3ODQxZTYzYzYxNXJjcmVhdGVkX2Fzc2VydGlvbnODomN1cmx4LXNlbGYjanVtYmY9YzJwYS5hc3NlcnRpb25zL2MycGEuaW5ncmVkaWVudC52M2RoYXNoWCAuCjGKB/0BgWQ1eA5MxJ17fDzLQDfYHuXM4gSwz7O4iqJjdXJseCpzZWxmI2p1bWJmPWMycGEuYXNzZXJ0aW9ucy9jMnBhLmFjdGlvbnMudjJkaGFzaFggnr9gp1gTtf68aZlxE53rZVUxrT+MCcCBvcB9DRkt3myiY3VybHgpc2VsZiNqdW1iZj1jMnBhLmFzc2VydGlvbnMvYzJwYS5oYXNoLmRhdGFkaGFzaFggKHz30TEO8s0/4I4GrRfuhPrgSvZ+Z56IuztxIxs6jdl0Y2xhaW1fZ2VuZXJhdG9yX2luZm+jZG5hbWVvQW50aHJvcGljIEZpbGVzZ3ZlcnNpb25lMS4wLjBrc3BlY1ZlcnNpb25lMi40LjAAABA4anVtYgAAAChqdW1kYzJjcwARABCAAACqADibcQNjMnBhLnNpZ25hdHVyZQAAABAIY2JvctKEWQISogEmGCFZAgowggIGMIIBjaADAgECAhRA5aAK7sI50L64g/oGQgU9Z1UTADAKBggqhkjOPQQDAzBJMRcwFQYDVQQKEw5BbnRocm9waWMsIFBCQzEuMCwGA1UEAxMlQW50aHJvcGljIENvbnRlbnQgQ3JlZGVudGlhbHMgUm9vdCBDQTAeFw0yNjA4MDcxODQzNTZaFw0yODA4MDYxOTQzNTZaMEQxFzAVBgNVBAoTDkFudGhyb3BpYywgUEJDMSkwJwYDVQQDEyBBbnRocm9waWMgQ2xhdWRlIENvbnRlbnQgU2lnbmluZzBZMBMGByqGSM49AgEGCCqGSM49AwEHA0IABJh6CmvLUBgFFNU0vUKlOVtE6djd17L5SuwX0LemFisBM3dkd/3cyjxFA3Qo5S46fX0/ihY0VZ7mfb9KF703t5OjWDBWMA4GA1UdDwEB/wQEAwIHgDAVBgNVHSUEDjAMBgorBgEEAYPoXgIBMAwGA1UdEwEB/wQCMAAwHwYDVR0jBBgwFoAUzlHiBIFOZFsj+OPEz5o+nMHXXMIwCgYIKoZIzj0EAwMDZwAwZAIwMXMdFJ4BetLLVY7ORuE9noqbbAZOZn/aArXyTwFAZfKrPzxF2vPoJNf1+UCdg1XGAjBwX1zd9WGqYkqmL5SFqw1QySjr1zJfpJM9+1rdDwSPLMOPOjKuiXjoU/pUUeG9RwmhY3BhZFkNngAAAAAAAAAAAAAAAAAAAAAAAAAAAAAAAAAAAAAAAAAAAAAAAAAAAAAAAAAAAAAAAAAAAAAAAAAAAAAAAAAAAAAAAAAAAAAAAAAAAAAAAAAAAAAAAAAAAAAAAAAAAAAAAAAAAAAAAAAAAAAAAAAAAAAAAAAAAAAAAAAAAAAAAAAAAAAAAAAAAAAAAAAAAAAAAAAAAAAAAAAAAAAAAAAAAAAAAAAAAAAAAAAAAAAAAAAAAAAAAAAAAAAAAAAAAAAAAAAAAAAAAAAAAAAAAAAAAAAAAAAAAAAAAAAAAAAAAAAAAAAAAAAAAAAAAAAAAAAAAAAAAAAAAAAAAAAAAAAAAAAAAAAAAAAAAAAAAAAAAAAAAAAAAAAAAAAAAAAAAAAAAAAAAAAAAAAAAAAAAAAAAAAAAAAAAAAAAAAAAAAAAAAAAAAAAAAAAAAAAAAAAAAAAAAAAAAAAAAAAAAAAAAAAAAAAAAAAAAAAAAAAAAAAAAAAAAAAAAAAAAAAAAAAAAAAAAAAAAAAAAAAAAAAAAAAAAAAAAAAAAAAAAAAAAAAAAAAAAAAAAAAAAAAAAAAAAAAAAAAAAAAAAAAAAAAAAAAAAAAAAAAAAAAAAAAAAAAAAAAAAAAAAAAAAAAAAAAAAAAAAAAAAAAAAAAAAAAAAAAAAAAAAAAAAAAAAAAAAAAAAAAAAAAAAAAAAAAAAAAAAAAAAAAAAAAAAAAAAAAAAAAAAAAAAAAAAAAAAAAAAAAAAAAAAAAAAAAAAAAAAAAAAAAAAAAAAAAAAAAAAAAAAAAAAAAAAAAAAAAAAAAAAAAAAAAAAAAAAAAAAAAAAAAAAAAAAAAAAAAAAAAAAAAAAAAAAAAAAAAAAAAAAAAAAAAAAAAAAAAAAAAAAAAAAAAAAAAAAAAAAAAAAAAAAAAAAAAAAAAAAAAAAAAAAAAAAAAAAAAAAAAAAAAAAAAAAAAAAAAAAAAAAAAAAAAAAAAAAAAAAAAAAAAAAAAAAAAAAAAAAAAAAAAAAAAAAAAAAAAAAAAAAAAAAAAAAAAAAAAAAAAAAAAAAAAAAAAAAAAAAAAAAAAAAAAAAAAAAAAAAAAAAAAAAAAAAAAAAAAAAAAAAAAAAAAAAAAAAAAAAAAAAAAAAAAAAAAAAAAAAAAAAAAAAAAAAAAAAAAAAAAAAAAAAAAAAAAAAAAAAAAAAAAAAAAAAAAAAAAAAAAAAAAAAAAAAAAAAAAAAAAAAAAAAAAAAAAAAAAAAAAAAAAAAAAAAAAAAAAAAAAAAAAAAAAAAAAAAAAAAAAAAAAAAAAAAAAAAAAAAAAAAAAAAAAAAAAAAAAAAAAAAAAAAAAAAAAAAAAAAAAAAAAAAAAAAAAAAAAAAAAAAAAAAAAAAAAAAAAAAAAAAAAAAAAAAAAAAAAAAAAAAAAAAAAAAAAAAAAAAAAAAAAAAAAAAAAAAAAAAAAAAAAAAAAAAAAAAAAAAAAAAAAAAAAAAAAAAAAAAAAAAAAAAAAAAAAAAAAAAAAAAAAAAAAAAAAAAAAAAAAAAAAAAAAAAAAAAAAAAAAAAAAAAAAAAAAAAAAAAAAAAAAAAAAAAAAAAAAAAAAAAAAAAAAAAAAAAAAAAAAAAAAAAAAAAAAAAAAAAAAAAAAAAAAAAAAAAAAAAAAAAAAAAAAAAAAAAAAAAAAAAAAAAAAAAAAAAAAAAAAAAAAAAAAAAAAAAAAAAAAAAAAAAAAAAAAAAAAAAAAAAAAAAAAAAAAAAAAAAAAAAAAAAAAAAAAAAAAAAAAAAAAAAAAAAAAAAAAAAAAAAAAAAAAAAAAAAAAAAAAAAAAAAAAAAAAAAAAAAAAAAAAAAAAAAAAAAAAAAAAAAAAAAAAAAAAAAAAAAAAAAAAAAAAAAAAAAAAAAAAAAAAAAAAAAAAAAAAAAAAAAAAAAAAAAAAAAAAAAAAAAAAAAAAAAAAAAAAAAAAAAAAAAAAAAAAAAAAAAAAAAAAAAAAAAAAAAAAAAAAAAAAAAAAAAAAAAAAAAAAAAAAAAAAAAAAAAAAAAAAAAAAAAAAAAAAAAAAAAAAAAAAAAAAAAAAAAAAAAAAAAAAAAAAAAAAAAAAAAAAAAAAAAAAAAAAAAAAAAAAAAAAAAAAAAAAAAAAAAAAAAAAAAAAAAAAAAAAAAAAAAAAAAAAAAAAAAAAAAAAAAAAAAAAAAAAAAAAAAAAAAAAAAAAAAAAAAAAAAAAAAAAAAAAAAAAAAAAAAAAAAAAAAAAAAAAAAAAAAAAAAAAAAAAAAAAAAAAAAAAAAAAAAAAAAAAAAAAAAAAAAAAAAAAAAAAAAAAAAAAAAAAAAAAAAAAAAAAAAAAAAAAAAAAAAAAAAAAAAAAAAAAAAAAAAAAAAAAAAAAAAAAAAAAAAAAAAAAAAAAAAAAAAAAAAAAAAAAAAAAAAAAAAAAAAAAAAAAAAAAAAAAAAAAAAAAAAAAAAAAAAAAAAAAAAAAAAAAAAAAAAAAAAAAAAAAAAAAAAAAAAAAAAAAAAAAAAAAAAAAAAAAAAAAAAAAAAAAAAAAAAAAAAAAAAAAAAAAAAAAAAAAAAAAAAAAAAAAAAAAAAAAAAAAAAAAAAAAAAAAAAAAAAAAAAAAAAAAAAAAAAAAAAAAAAAAAAAAAAAAAAAAAAAAAAAAAAAAAAAAAAAAAAAAAAAAAAAAAAAAAAAAAAAAAAAAAAAAAAAAAAAAAAAAAAAAAAAAAAAAAAAAAAAAAAAAAAAAAAAAAAAAAAAAAAAAAAAAAAAAAAAAAAAAAAAAAAAAAAAAAAAAAAAAAAAAAAAAAAAAAAAAAAAAAAAAAAAAAAAAAAAAAAAAAAAAAAAAAAAAAAAAAAAAAAAAAAAAAAAAAAAAAAAAAAAAAAAAAAAAAAAAAAAAAAAAAAAAAAAAAAAAAAAAAAAAAAAAAAAAAAAAAAAAAAAAAAAAAAAAAAAAAAAAAAAAAAAAAAAAAAAAAAAAAAAAAAAAAAAAAAAAAAAAAAAAAAAAAAAAAAAAAAAAAAAAAAAAAAAAAAAAAAAAAAAAAAAAAAAAAAAAAAAAAAAAAAAAAAAAAAAAAAAAAAAAAAAAAAAAAAAAAAAAAAAAAAAAAAAAAAAAAAAAAAAAAAAAAAAAAAAAAAAAAAAAAAAAAAAAAAAAAAAAAAAAAAAAAAAAAAAAAAAAAAAAAAAAAAAAAAAAAAAAAAAAAAAAAAAAAAAAAAAAAAAAAAAAAAAAAAAAAAAAAAAAAAAAAAAAAAAAAAAAAAAAAAAAAAAAAAAAAAAAAAAAAAAAAAAAAAAAAAAAAAAAAAAAAAAAAAAAAAAAAAAAAAAAAAAAAAAAAAAAAAAAAAAAAAAAAAAAAAAAAAAAAAAAAAAAAAAAAAAAAAAAAAAAAAAAAAAAAAAAAAAAAAAAAAAAAAAAAAAAAAAAAAAAAAAAAAAAAAAAAAAAAAAAAAAAAAAAAAAAAAAAAAAAAAAAAAAAAAAAAAAAAAAAAAAAAAAAAAAAAAAAAAAAAAAAAAAAAAAAAAAAAAAAAAAAAAAAAAAAAAAAAAAAAAAAAAAAAAAAAAAAAAAAAAAAAAAAAAAAAAAAAAAAAAAAAAAAAAAAAAAAAAAAAAAAAAAAAAAAAAAAAAAAAAAAAAAAAAAAAAAAAAAAAAAAAAAAAAAAAAAAAAAAAAAAAAAAAAAAAAAAAAAAAAAAAAAAAAAAAAAAAAAAAAAAAAAAAAAAAAAAAAAAAAAAAAAAAAAAAAAAAAAAAAAAAAAAAAAAAAAAAAAAAAAAAAAAAAAAAAAAAAAAAAAAAAAAAAAAAAAAAAAAAAAAAAAAAAAAAAAAAAAAAAAAAAAAAAAAAAAAAAAAAAAAAAAAAAAAAAAAAAAAAAAAAAAAAAAAAAAAAAAAAAAAAAAAAAAAAAAAAAAAAAAAAAAAAAAAAAAAAAAAAAAAAAAAAAAAAAAAAAAAAAAAAAAAAAAAAAAAAAAAAAAAAAAAAAAAAAAAAAAAAAAAAAAAAAAAAAAAAAAAAAAAAAAAAAAAAAAAAAAAAAAAAAAAAAAAAAAAAAAAAAAAAAAAAAAAAAAAAAAAAAAAAAAAAAAAAAAAAAAAAAAAAAAAAAAAAAAAAAAAAAAAAAAAAAAAAAAAAAAAAAAAAAAAAAAAAAAAAAAAAAAAAAAAAAAAAAAAAAAAAAAAAAAAAAAAAAAAAAAAAAAAAAAAAAAAAAAAAAAAAAAAAAAAAAAAAAAAAAAAAAAAAAAAAAAAAAAAAAAAAAAAAAAAAAAAAAAAAAAAAAAAAAAAAAAAAAAAAAAAAAAAAAAAAAAAAAAAAAAAAAAAAAAAAAAAAAAAAAAAAAAAAAAAAAAAAAAAAAAAAAAAAAAAAAAAAAAAAAAAAAAAAAAAAAAAAAAAAAAAAAAAAAAAAAAAAAAAAAAAAAAAAAAAAAAAAAAAAAAAAAAAAAAAAAAAAAAAAAAAAAAAAAAAAAAAAAAAAAAAAAAAAAAAAAAAAAAAAAAAAAAAAAAAAAAAAAAAAAAAAAAAAAAAAAAAAAAAAAAAAAAAAAAAAAAAAAAAAAAAAAAAAAAAAAAAAAAAAAAAAAAAAAAAAAAAAAAAAAAAAAAAAAAAAAAAAAAAAAAAAAAAAAAAAAAAAAAAAAAAAAAAAAAAAAAAAAAAAAAAAAAAAAAAAAAAAAAAAAAAAAAAAAAAPZYQMyG/pyWH60W8OG1joJ3ZyFrDbwtW+tq1Nvn/dpcFrEGqgSkWjPzKrE0yFudclnAvtpbBEGlDpHo4Mqq8sObYMc=</c2pa:manifest></metadata>
<defs>
<filter id="noise"><feTurbulence type="fractalNoise" baseFrequency=".9" numOctaves="2" stitchTiles="stitch"/><feColorMatrix values="0 0 0 0 .6  0 0 0 0 .1  0 0 0 0 .15  0 0 0 .55 0"/></filter>
<pattern id="scan" width="4" height="4" patternUnits="userSpaceOnUse"><rect width="4" height="1" fill="#000" opacity=".35"/></pattern>
<filter id="glow" x="-20%" y="-50%" width="140%" height="200%"><feGaussianBlur stdDeviation="6" result="b"/><feMerge><feMergeNode in="b"/><feMergeNode in="SourceGraphic"/></feMerge></filter>
<linearGradient id="cg" x1="0" y1="0" x2="1" y2="1"><stop offset="0" stop-color="#0F0A0C"/><stop offset="1" stop-color="#170609"/></linearGradient>
<style>.bl{animation:bl 1.4s steps(1) infinite}@keyframes bl{50%{opacity:.2}}.sw{animation:sw 4s linear infinite}@keyframes sw{from{transform:translateX(-200px)}to{transform:translateX(800px)}}</style></defs>
<rect width="580" height="230" fill="url(#cg)"/>
<rect x="6" y="6" width="568" height="218" fill="none" stroke="#5C0A14"/>
<path d="M6,30 V6 H30 M550,6 H574 V30 M574,200 V224 H550 M30,224 H6 V200" stroke="#E0314B" stroke-width="2" fill="none"/>
<path d="M465.544 119.564C478.24 119.564 489.832 108.616 489.832 83.5C489.832 58.568 478.24 47.712 465.544 47.712C452.756 47.712 441.348 58.568 441.348 83.5C441.348 108.616 452.756 119.564 465.544 119.564ZM465.544 116.344C460.024 116.344 455.424 109.352 455.424 83.5C455.424 57.832 460.024 50.932 465.544 50.932C470.972 50.932 475.756 57.924 475.756 83.5C475.756 109.26 470.972 116.344 465.544 116.344Z M519.732 119.564C535.464 119.564 545.124 111.836 545.124 100.612C545.124 90.952 539.972 83.96000000000001 525.436 81.75200000000001C538.224 79.176 543.008 72.46000000000001 543.008 63.996C543.008 54.52 536.1080000000001 47.712 521.572 47.712C510.348 47.712 500.68800000000005 52.403999999999996 500.41200000000003 63.444C501.42400000000004 65.19200000000001 503.264 66.29599999999999 505.564 66.29599999999999C508.78400000000005 66.29599999999999 511.636 64.732 512.464 60.04L514.212 51.116C515.316 50.932 516.328 50.84 517.248 50.84C524.24 50.84 528.38 55.44 528.38 64.548C528.38 75.49600000000001 522.952 80.464 514.856 80.464H511.728V84.05199999999999H515.316C524.7 84.05199999999999 529.668 89.848 529.668 100.70400000000001C529.668 111.008 524.424 116.344 514.948 116.344C513.6600000000001 116.344 512.556 116.252 511.54400000000004 115.976L510.072 106.96000000000001C509.244 100.79599999999999 506.944 98.956 503.264 98.956C500.872 98.956 498.48 100.244 497.468 103.188C498.29600000000005 113.492 505.74800000000005 119.564 519.732 119.564Z" fill="none" stroke="#8B1E2D" stroke-width="1.2" opacity=".7"/>
<path d="M42.480000000000004 62.01 45.66 62.4C45.72 64.62 45.75 66.78 45.75 69.0V71.28C45.12 71.4 44.49 71.46 43.8 71.46C39.78 71.46 36.63 67.47 36.63 60.78C36.63 53.58 39.9 50.13 44.1 50.13C44.94 50.13 45.69 50.25 46.41 50.519999999999996L47.97 56.1H49.83L49.95 50.61C48.09 49.59 46.019999999999996 48.99 43.44 48.99C36.21 48.99 31.29 53.49 31.29 60.72C31.29 68.16 36.12 72.6 43.23 72.6C46.08 72.6 48.21 72.0 50.55 70.62V69.15C50.55 66.69 50.58 64.47 50.64 62.25L52.5 62.01V60.99H42.480000000000004Z M73.60000000000001 55.56H75.34L75.37 49.59H58.21V50.61L60.910000000000004 50.85C60.970000000000006 53.94 60.970000000000006 57.03 60.970000000000006 60.15V61.47C60.970000000000006 64.59 60.970000000000006 67.68 60.910000000000004 70.71L58.21 70.98V72.0H76.0L75.94 65.79H74.26L72.88 70.83H66.13000000000001C66.07000000000001 67.71 66.07000000000001 64.53 66.07000000000001 61.2V61.11H70.18L70.60000000000001 64.11H72.10000000000001V56.85H70.60000000000001L70.15 60.03H66.07000000000001C66.07000000000001 56.85 66.07000000000001 53.760000000000005 66.13000000000001 50.760000000000005H72.28Z M97.82000000000001 55.56H99.56L99.59 49.59H82.43V50.61L85.13 50.85C85.19 53.94 85.19 57.03 85.19 60.15V61.47C85.19 64.59 85.19 67.68 85.13 70.71L82.43 70.98V72.0H100.22L100.16 65.79H98.48L97.1 70.83H90.35000000000001C90.29 67.71 90.29 64.53 90.29 61.2V61.11H94.4L94.82000000000001 64.11H96.32000000000001V56.85H94.82000000000001L94.37 60.03H90.29C90.29 56.85 90.29 53.760000000000005 90.35000000000001 50.760000000000005H96.5Z M122.1 72.0H128.91V70.98L126.99000000000001 70.77L119.58 57.03L124.62 51.03L127.8 50.61V49.59H119.94V50.61L123.0 51.03L114.3 61.8V60.15C114.3 57.03 114.3 53.91 114.36 50.88L117.03 50.61V49.59H106.65V50.61L109.35 50.85C109.41 53.94 109.41 57.03 109.41 60.15V61.47C109.41 64.59 109.41 67.68 109.35 70.71L106.65 70.98V72.0H116.7V70.98L114.36 70.71C114.3 68.13 114.3 65.61 114.3 63.33L116.37 60.84L121.47 70.77L119.37 70.98V72.0Z M134.23 50.61 136.93 50.85C136.99 53.94 136.99 57.03 136.99 60.15V61.47C136.99 64.59 136.99 67.68 136.93 70.71L134.23 70.98V72.0H145.36V70.98L142.15 70.65C142.09 67.95 142.09 65.28 142.09 63.03H143.23C150.37 63.03 152.95 60.0 152.95 56.25C152.95 52.019999999999996 150.19 49.59 143.32 49.59H134.23ZM142.09 61.89V60.15C142.09 56.97 142.09 53.82 142.15 50.730000000000004H143.32C146.5 50.730000000000004 148.18 52.59 148.18 56.22C148.18 59.58 146.56 61.89 143.11 61.89Z M169.64 72.6C175.31 72.6 180.26 68.58 180.26 60.78C180.26 53.010000000000005 175.27999999999997 48.99 169.64 48.99C164.0 48.99 158.98999999999998 53.04 158.98999999999998 60.78C158.98999999999998 68.61 164.0 72.6 169.64 72.6ZM169.64 71.46C165.98 71.46 164.32999999999998 66.96 164.32999999999998 60.78C164.32999999999998 54.66 165.98 50.13 169.64 50.13C173.29999999999998 50.13 174.92 54.66 174.92 60.78C174.92 66.96 173.29999999999998 71.46 169.64 71.46Z M186.77999999999997 50.61 189.48 50.85C189.57 53.94 189.57 57.03 189.57 60.15V61.47C189.57 64.59 189.57 67.68 189.48 70.71L186.77999999999997 70.98V72.0H197.39999999999998V70.98L194.73 70.71C194.67 67.62 194.67 64.53 194.67 61.44V60.15C194.67 57.03 194.67 53.91 194.73 50.85L197.39999999999998 50.61V49.59H186.77999999999997Z M220.80999999999997 72.06H223.44999999999996V51.03L226.41999999999996 50.61V49.59H218.07999999999996V50.61L222.12999999999997 51.03V57.66L222.24999999999997 65.43L211.26999999999998 49.59H203.88999999999996V50.61L206.16999999999996 50.85L206.64999999999998 51.57V70.53L203.70999999999998 70.98V72.0H212.01999999999998V70.98L208.20999999999998 70.56V65.1L207.87999999999997 53.370000000000005Z M232.09999999999997 56.07H233.86999999999998L235.36999999999998 50.760000000000005H239.50999999999996C239.56999999999996 53.879999999999995 239.56999999999996 57.0 239.56999999999996 60.15V61.47C239.56999999999996 64.59 239.56999999999996 67.68 239.50999999999996 70.68L236.47999999999996 70.98V72.0H247.78999999999996V70.98L244.72999999999996 70.68C244.66999999999996 67.62 244.66999999999996 64.5 244.66999999999996 61.44V60.15C244.66999999999996 56.97 244.66999999999996 53.85 244.72999999999996 50.760000000000005H248.86999999999998L250.39999999999998 56.07H252.13999999999996L252.01999999999998 49.59H232.21999999999997Z" fill="#D8CFC4"/>
<text x="30" y="98" font-family="Consolas,'DejaVu Sans Mono','Courier New',monospace" font-size="12" letter-spacing="2" fill="#B3243A">// PROYECTO INTEGRADOR · SCRUM MASTER</text>
<g font-family="Georgia,'Times New Roman',serif" font-size="15" fill="#D8CFC4" opacity=".85"><text x="30" y="128">Punto de venta multisucursal y bilingüe,</text><text x="30" y="149">con inventario por sucursal y vistas 3D.</text></g>
<g font-family="Consolas,'DejaVu Sans Mono','Courier New',monospace" font-size="12" fill="#D8CFC4"><rect x="30" y="168" width="98" height="24" rx="3" fill="#0F0A0C" stroke="#8B1E2D"/><text x="79" y="184" text-anchor="middle">JavaScript</text><rect x="136.0" y="168" width="45" height="24" rx="3" fill="#0F0A0C" stroke="#8B1E2D"/><text x="158" y="184" text-anchor="middle">PHP</text><rect x="188.8" y="168" width="60" height="24" rx="3" fill="#0F0A0C" stroke="#8B1E2D"/><text x="219" y="184" text-anchor="middle">MySQL</text><rect x="256.8" y="168" width="83" height="24" rx="3" fill="#0F0A0C" stroke="#8B1E2D"/><text x="298" y="184" text-anchor="middle">Three.js</text></g>
<g font-family="Consolas,'DejaVu Sans Mono','Courier New',monospace" font-size="11" letter-spacing="2"><circle cx="462" cy="196" r="4" fill="#E0314B" class="bl"/><text x="550" y="200" text-anchor="end" fill="#6E6266">EN VIVO</text></g>
<g transform="skewX(-20)"><rect class="sw" y="6" width="60" height="218" fill="#E0314B" opacity=".05"/></g>
<rect width="580" height="230" fill="url(#scan)" opacity=".5"/>
</svg>